<svg xmlns="http://www.w3.org/2000/svg" xmlns:xlink="http://www.w3.org/1999/xlink" width="40" height="40" viewBox="0 0 40 40">
    <defs>
        <path id="a" d="M.13.68h4.948v5.162H.13z"/>
    </defs>
    <g fill="none" fill-rule="evenodd">
        <g transform="translate(19.5 8.408)">
            <mask id="b" fill="#fff">
                <use xlink:href="#a"/>
            </mask>
            <path fill="#29ADE4" d="M2.604 5.842c1.365 0 2.474-1.157 2.474-2.581S3.968.679 2.604.679.13 1.837.13 3.261s1.11 2.581 2.474 2.581" mask="url(#b)"/>
        </g>
        <path fill="#29ADE4" d="M11.688 30.147c-1.439 0-2.605-1.217-2.605-2.718 0-1.5 1.166-2.717 2.605-2.717 1.438 0 2.604 1.216 2.604 2.717 0 1.501-1.166 2.718-2.604 2.718m0-7.609C9.102 22.538 7 24.733 7 27.429c0 2.697 2.103 4.892 4.688 4.892 2.584 0 4.687-2.195 4.687-4.892 0-2.696-2.103-4.891-4.688-4.891M27.313 30.147c-1.439 0-2.605-1.217-2.605-2.718 0-1.5 1.166-2.717 2.605-2.717 1.438 0 2.604 1.216 2.604 2.717 0 1.501-1.166 2.718-2.605 2.718m0-7.609c-2.584 0-4.687 2.195-4.687 4.891 0 2.697 2.103 4.892 4.688 4.892 2.584 0 4.687-2.195 4.687-4.892 0-2.696-2.103-4.891-4.688-4.891"/>
        <path fill="#29ADE4" d="M18.363 20.257a.28.28 0 0 1-.022-.382l1.19-1.418a.25.25 0 0 1 .335-.051 8.353 8.353 0 0 0 4.663 1.416h.7c.863 0 1.563-.73 1.563-1.63 0-.901-.7-1.63-1.563-1.63h-.7c-1.46 0-2.89-.62-3.925-1.698-.305-.32-.726-.517-1.156-.476-.432.015-.84.217-1.124.556l-3.646 4.348a1.684 1.684 0 0 0-.374 1.288c.113.87.693 1.149 1.375 1.623 1.858 1.292 2.78 3.686 2.296 5.96-.187.88.344 1.751 1.187 1.945.912.213 1.693-.44 1.863-1.237.674-3.167-.384-6.484-2.662-8.614"/>
    </g>
</svg>
