<svg xmlns="http://www.w3.org/2000/svg" xmlns:xlink="http://www.w3.org/1999/xlink" width="40" height="40" viewBox="0 0 40 40">
    <defs>
        <path id="a" d="M0 0h2.375v19H0z"/>
    </defs>
    <g fill="none" fill-rule="evenodd">
        <path fill="#29ADE4" d="M29.456 23.357l-5.358-4.286a.198.198 0 0 1 0-.31l4.74-3.79c.412-.33.383-.637.33-.79-.054-.153-.223-.41-.75-.41h-7.523v-1.187c0-.656-.532-1.188-1.187-1.188h-4.75a.395.395 0 0 0-.395.396v9.5c0 .218.176.396.396.396h3.348c-.53.312-1.01.732-1.235 1.286a.79.79 0 0 0 .078.738.79.79 0 0 0 .657.35H29.21a.396.396 0 0 0 .247-.705"/>
        <g transform="translate(11 11)">
            <mask id="b" fill="#fff">
                <use xlink:href="#a"/>
            </mask>
            <path fill="#29ADE4" d="M1.188 0C.53 0 0 .53 0 1.187v16.625a1.187 1.187 0 1 0 2.375 0V1.187C2.375.531 1.844 0 1.187 0" mask="url(#b)"/>
        </g>
    </g>
</svg>
