<svg xmlns="http://www.w3.org/2000/svg" width="40" height="40" viewBox="0 0 40 40">
    <path fill="#29ADE4" fill-rule="evenodd" stroke="#29ADE4" stroke-width="1.8" d="M27.915 16.254l.057.177.069.21.167.504.18.5c.08.224.163.447.247.669l1.245-1.797.05-.071h-.596l-1.42-.192zm3.094-.598h.03a.056.056 0 0 1-.044-.023l.014.023zm-19.64 2.664c.084-.226.166-.452.247-.678l.177-.499.166-.502.085-.26.043-.132-1.421.197h-.596l.05.071.245.353 1.004 1.45zm-2.378-2.664a.678.678 0 0 1 .015-.023.058.058 0 0 1-.046.023h.031zm18.193 2.085h.158a2.4 2.4 0 0 1 2.4 2.4v.237a2.4 2.4 0 0 1-2.4 2.4h-.158a2.4 2.4 0 0 1-2.4-2.4v-.237a2.4 2.4 0 0 1 2.4-2.4zm-14.526 0h.158a2.4 2.4 0 0 1 2.4 2.4v.237a2.4 2.4 0 0 1-2.4 2.4h-.158a2.4 2.4 0 0 1-2.4-2.4v-.237a2.4 2.4 0 0 1 2.4-2.4zm4.685 3.237h5.946c1.122 0 2.032.91 2.032 2.033v.067c0 .991-.554 1.9-1.436 2.352-.75.385-1.58.585-2.423.585h-2.307c-.84 0-1.669-.2-2.415-.586a2.64 2.64 0 0 1-1.43-2.346v-.072c0-1.123.91-2.033 2.033-2.033zm-.423-9.617c1.936-.174 3.182-.261 3.77-.261.573 0 1.692.081 3.392.244a4.682 4.682 0 0 1 3.966 3.097l.517 1.458A1.5 1.5 0 0 1 27.15 17.9H13.849a1.5 1.5 0 0 1-1.414-2l.517-1.459a4.652 4.652 0 0 1 3.968-3.08z"/>
</svg>
