<svg xmlns="http://www.w3.org/2000/svg" xmlns:xlink="http://www.w3.org/1999/xlink" width="40" height="40" viewBox="0 0 40 40">
    <defs>
        <path id="a" d="M.1.062h.1v18.876H.1z"/>
    </defs>
    <g fill="none" fill-rule="evenodd">
        <path fill="#29ADE4" d="M22.4 7c.718.079 1.274.485 1.763.96 1.683 1.634 3.386 3.248 4.95 5 .573.641.808 1.353.802 2.228-.033 4.578-.06 9.157.008 13.734.025 1.643-1.605 3.62-3.087 3.627a.237.237 0 0 0-.136.051H13.2c-1.102-.208-1.938-.805-2.541-1.74-.36-.557-.553-1.163-.507-1.835V10.586c.001-1.72 1.173-3.159 2.865-3.518.064-.014.132-.018.183-.068h9.2zm-1.545 2h-6.498c-1.44 0-2.207.769-2.207 2.216v8.546c0 2.9-.002 5.798 0 8.697.001 1.345.797 2.14 2.132 2.14h11.445c1.312 0 2.12-.793 2.122-2.1.004-4.131.003-8.263 0-12.394 0-.794-.201-1.06-.985-1.149-1.21-.136-2.428-.036-3.642-.053-.961-.014-1.26-.317-1.274-1.295-.017-1.214.067-2.43-.05-3.643-.069-.722-.34-.965-1.043-.965z"/>
        <g transform="translate(10 10.3)">
            <mask id="b" fill="#fff">
                <use xlink:href="#a"/>
            </mask>
            <path fill="#7F7F7F" d="M.176 18.918l-.045.02L.1 18.9V.1L.131.062l.045.02C.184.198.199.314.199.43v18.14c0 .116-.015.232-.023.348" mask="url(#b)"/>
        </g>
        <path fill="#29ADE4" d="M19.98 18.85c-1.583 0-3.165.003-4.746-.003-.435-.002-.836-.12-1.037-.55a1.023 1.023 0 0 1 .093-1.081c.24-.346.602-.41.965-.41 3.164-.01 6.328-.011 9.491-.002.638.002 1.05.302 1.149.762.105.49-.076.916-.5 1.148-.255.14-.539.136-.82.136H19.98M19.95 26.7h-4.742c-.701-.001-1.102-.358-1.108-.983-.006-.632.385-1.014 1.083-1.015 3.212-.005 6.423-.005 9.634 0 .69.001 1.089.39 1.083 1.015-.006.635-.39.98-1.108.982-1.614.003-3.228.001-4.842.001M19 20.75c1.25 0 2.5-.01 3.75.004.891.01 1.365.57 1.15 1.318-.156.539-.588.717-1.069.72-2.55.016-5.1.016-7.65 0-.584-.004-.963-.303-1.072-.732-.12-.477.057-.912.474-1.161.254-.153.538-.146.817-.147 1.2-.004 2.4-.002 3.6-.001"/>
    </g>
</svg>
