<svg xmlns="http://www.w3.org/2000/svg" xmlns:xlink="http://www.w3.org/1999/xlink" width="40" height="40" viewBox="0 0 40 40">
    <defs>
        <path id="a" d="M.09.006H11.07v17.698H.09z"/>
        <path id="c" d="M0 .68h12.053v17.798H0z"/>
    </defs>
    <g fill="none" fill-rule="evenodd">
        <path fill="#29ADE4" d="M23.957 10.49a.545.545 0 0 0-.012-.99L20.75 8.09a1.064 1.064 0 0 0-.855 0l-9.718 4.287a.546.546 0 1 0 .008 1l3.809 1.61a.534.534 0 0 0 .431-.01l9.533-4.486z"/>
        <g transform="translate(21.571 14.526)">
            <mask id="b" fill="#fff">
                <use xlink:href="#a"/>
            </mask>
            <path fill="#29ADE4" d="M5.336 7.122a.53.53 0 0 1 .757 0L7.7 8.752c.153.156.2.39.116.593a.536.536 0 0 1-.494.335h-.804v2.174a.81.81 0 0 1-.803.816.81.81 0 0 1-.804-.816V9.68h-.803a.536.536 0 0 1-.495-.335.548.548 0 0 1 .115-.593l1.608-1.63zM.09 17.16c0 .185.092.356.245.456.153.1.346.116.512.038l9.596-4.425c.384-.177.629-.563.629-.99V.55a.545.545 0 0 0-.246-.457.531.531 0 0 0-.513-.038L.403 4.625a.543.543 0 0 0-.313.495v12.04z" mask="url(#b)"/>
        </g>
        <g transform="translate(8 13.812)">
            <mask id="d" fill="#fff">
                <use xlink:href="#c"/>
            </mask>
            <path fill="#29ADE4" d="M7.958 3.772a.533.533 0 0 0-.741.5v1.775a.81.81 0 0 1-.804.815.81.81 0 0 1-.803-.815V3.14c0-.22-.131-.417-.33-.502L.742.721A.533.533 0 0 0 .24.77a.547.547 0 0 0-.24.452V12.93c0 .44.261.834.66 1.004l10.653 4.502c.165.07.353.052.503-.05.15-.1.238-.27.238-.451V5.865c0-.22-.13-.417-.329-.502L7.958 3.772z" mask="url(#d)"/>
        </g>
        <path fill="#29ADE4" d="M20.628 17.79a.523.523 0 0 0 .427-.006l9.499-4.38a.544.544 0 0 0 .314-.498.544.544 0 0 0-.323-.495l-3.314-1.462a.526.526 0 0 0-.44.006l-9.465 4.454a.544.544 0 0 0-.31.503.545.545 0 0 0 .33.493l3.282 1.386z"/>
    </g>
</svg>
