<svg xmlns="http://www.w3.org/2000/svg" width="40" height="40" viewBox="0 0 40 40">
    <g fill="#29ADE4" fill-rule="evenodd">
        <path d="M15.13 27.61c-.001-2.003.025-3.896.036-5.898.004-.64-.158-1.102-.61-1.544a82.645 82.645 0 0 1-2.888-3.011c-.847-.918-.885-2.063-.135-2.84.75-.778 1.83-.728 2.714.162.79.794 1.616 1.563 2.31 2.443.768.974 1.681 1.161 2.839 1.245 1.778.13 3.124-.372 4.183-1.866.378-.534.895-.962 1.35-1.435 1.531-1.593 2.738-1.381 3.622.635v.713c-.202.843-.778 1.407-1.33 2.002-3.214 3.462-2.6 1.868-2.652 6.747-.01.882-.014 1.764-.015 2.646-.005 2.391-9.422 2.228-9.423 0z"/>
        <path d="M19.975 8.003c2.12.077 3.813 1.884 3.764 4.016-.05 2.123-1.832 3.84-3.964 3.821-2.178-.02-3.93-1.835-3.882-4.021.049-2.176 1.889-3.896 4.082-3.816z"/>
    </g>
</svg>
