<svg xmlns="http://www.w3.org/2000/svg" xmlns:xlink="http://www.w3.org/1999/xlink" width="40" height="40" viewBox="0 0 40 40">
    <defs>
        <path id="a" d="M0 .233h19.688V15.85H0z"/>
    </defs>
    <g fill="none" fill-rule="evenodd">
        <g transform="translate(10 14.527)">
            <mask id="b" fill="#fff">
                <use xlink:href="#a"/>
            </mask>
            <path fill="#29ADE4" d="M19.192 1.79L15.252.28a.704.704 0 0 0-.908.401c-.14.36.04.765.404.904l2.032.78a.232.232 0 0 1 .003.433L9.93 5.524a.232.232 0 0 1-.174 0l-6.88-2.737a.233.233 0 0 1 .005-.435l2.053-.765a.698.698 0 0 0 .41-.9.704.704 0 0 0-.904-.41L.449 1.767c-.01.003-.46.177-.45.67v8.315c0 .176.101.338.26.417l9.376 4.633c.003.002.008.001.012.003a.47.47 0 0 0 .197.047.463.463 0 0 0 .196-.047c.005-.002.01 0 .014-.003l9.375-4.633a.467.467 0 0 0 .258-.417v-8.42c0-.013.045-.335-.495-.542" mask="url(#b)"/>
        </g>
        <path fill="#29ADE4" d="M19.094 17.418a.939.939 0 0 0 1.5 0l2.813-3.73a.927.927 0 0 0 .088-.976.937.937 0 0 0-.838-.516H21.25V9.399c0-.773-.63-1.399-1.406-1.399-.777 0-1.406.626-1.406 1.399v2.797h-1.406a.94.94 0 0 0-.84.516.927.927 0 0 0 .09.976l2.812 3.73z"/>
    </g>
</svg>
