<svg xmlns="http://www.w3.org/2000/svg" xmlns:xlink="http://www.w3.org/1999/xlink" width="40" height="40" viewBox="0 0 40 40">
    <defs>
        <path id="a" d="M0 0h28v28H0z"/>
    </defs>
    <g fill="none" fill-rule="evenodd" transform="translate(6 6)">
        <mask id="b" fill="#fff">
            <use xlink:href="#a"/>
        </mask>
        <path fill="#29ADE4" d="M11.5 8.522c0-1.46 1.122-2.647 2.5-2.647s2.5 1.188 2.5 2.647v.882c0 .122-.093.221-.208.221h-4.584a.215.215 0 0 1-.208-.22v-.883zm-.459 6.389c.482-1.005 1.764-1.223 2.524-.428l.297.31c.076.08.2.08.276 0l.297-.31c.76-.795 2.042-.577 2.524.428.303.634.184 1.4-.296 1.9l-2.522 2.751a.194.194 0 0 1-.141.063.194.194 0 0 1-.141-.063l-2.522-2.75a1.702 1.702 0 0 1-.296-1.901zM20.836 24a3.158 3.158 0 0 0 3.14-3.55L22.644 9.817v-.005a.644.644 0 0 0-.024-.105l-.003-.008-.005-.015-.878-2.47a.516.516 0 0 0-.034-.077c-.26-.506-.752-.82-1.286-.82h-.843a.632.632 0 1 0 0 1.263h.843c.05 0 .104.041.145.106l.462 1.297a.211.211 0 0 1-.2.281h-2.305a.21.21 0 0 1-.211-.21V8.21a4.22 4.22 0 0 0-8.437 0v.842a.21.21 0 0 1-.211.21H7.259a.212.212 0 0 1-.177-.094.213.213 0 0 1-.018-.199l.534-1.257c.041-.081.105-.134.16-.134h.844a.632.632 0 1 0 0-1.263h-.844c-.533 0-1.026.314-1.306.861l-1.049 2.47-.002.006a.508.508 0 0 0-.016.043l-.005.012a.59.59 0 0 0-.022.107l-.001.001-1.332 10.635a3.152 3.152 0 0 0 .767 2.481A3.167 3.167 0 0 0 7.164 24h13.672z" mask="url(#b)"/>
    </g>
</svg>
