<svg xmlns="http://www.w3.org/2000/svg" width="40" height="40" viewBox="0 0 40 40">
    <g fill="none" fill-rule="evenodd">
        <path fill="#29ADE4" d="M20.64 7.856a.18.18 0 0 1-.287 0c-.52-.705-1.265-.914-1.871-.843-.928.109-1.868.906-1.868 2.219 0 1.675 2.417 3.667 3.456 4.446a.709.709 0 0 0 .852 0c1.04-.779 3.456-2.77 3.456-4.446 0-1.313-.94-2.11-1.867-2.219-.605-.07-1.352.138-1.871.843z"/>
        <g stroke="#29ADE4" stroke-width="2.5" transform="translate(9 15)">
            <rect width="12.5" height="12.5" x="9.25" y="1.25" rx="6.25"/>
            <rect width="12.5" height="12.5" x="1.25" y="1.25" rx="6.25"/>
        </g>
    </g>
</svg>
