<svg xmlns="http://www.w3.org/2000/svg" width="40" height="40" viewBox="0 0 40 40">
    <path fill="#29ADE4" fill-rule="evenodd" d="M7.029 19.07c.028-2.967 1.834-5.583 4.55-6.608 2.704-1.021 5.711-.331 7.72 1.89.57.629.784.57 1.324-.01 2.09-2.248 5.06-2.9 7.832-1.815 2.77 1.084 4.491 3.574 4.517 6.601.022 2.632-.043 5.266.027 7.896.03 1.121-.65.95-1.327.96-.67.011-1.245.085-1.216-.94.072-2.55.033-5.104.022-7.656-.013-2.852-1.988-4.932-4.64-4.907-2.693.025-4.581 2.056-4.587 4.948-.006 2.552-.053 5.106.023 7.655.032 1.08-.627.917-1.244.887-.603-.03-1.427.332-1.404-.865.05-2.751.039-5.504 0-8.254-.026-1.852-.958-3.2-2.651-3.952-1.685-.749-3.34-.549-4.782.591-1.126.89-1.668 2.123-1.67 3.565-.001 2.632-.05 5.265.02 7.896.027 1.035-.502 1.051-1.264 1.042-.74-.008-1.34.027-1.274-1.03.087-1.39.022-2.79.022-4.186 0-1.236-.01-2.473.002-3.709z"/>
</svg>
