<svg xmlns="http://www.w3.org/2000/svg" width="40" height="40" viewBox="0 0 40 40">
    <path fill="#29ADE4" fill-rule="evenodd" d="M10.806 25.853a1.208 1.208 0 0 0-.071-1.135A10.921 10.921 0 0 1 9.09 18.96C9.091 12.92 13.998 8 20.041 8 26.08 8 31 12.919 31 18.96c0 6.042-4.919 10.949-10.96 10.949-2.022 0-4.02-.568-5.758-1.644a1.208 1.208 0 0 0-1.135-.07l-3.725 1.773a.272.272 0 0 1-.33-.06.269.269 0 0 1-.06-.33l1.774-3.725zm14.873-7.212c.982 0 1.774-.792 1.774-1.773 0-.982-.792-1.774-1.774-1.774-.98 0-1.773.792-1.773 1.774 0 .98.792 1.773 1.773 1.773zm-2.66 1.797h-5.876c-.32 0-.591.26-.591.591a3.535 3.535 0 0 0 3.535 3.524 3.532 3.532 0 0 0 3.523-3.524.585.585 0 0 0-.59-.59zm-8.572-1.797c.982 0 1.774-.792 1.774-1.773 0-.982-.792-1.774-1.774-1.774-.981 0-1.773.792-1.773 1.774 0 .98.792 1.773 1.773 1.773z"/>
</svg>
