<svg xmlns="http://www.w3.org/2000/svg" width="40" height="40" viewBox="0 0 40 40">
    <g fill="#29ADE4" fill-rule="evenodd">
        <path d="M15.23 19.916a.957.957 0 0 0-1.504-.787l-.012.007-4.283 3.173-.008.007a.957.957 0 0 0-.423.795v6.93c0 .53.43.959.958.959h.24a.24.24 0 0 0 .24-.24V24.29a.48.48 0 0 1 .958 0v6.469c0 .132.107.24.24.24h.958a.24.24 0 0 0 .24-.24V24.29a.48.48 0 0 1 .958 0v6.469c0 .132.107.24.24.24h.239a.96.96 0 0 0 .958-.959V19.916zM31.76 24.77a.24.24 0 0 0 .24-.239v-2.396a.24.24 0 0 0-.24-.24h-5.27a.24.24 0 0 0-.24.24v2.396c0 .133.107.24.24.24h5.27zM32 25.969a.24.24 0 0 0-.24-.24h-5.27a.24.24 0 0 0-.24.24v1.916c0 .133.107.24.24.24h5.27a.24.24 0 0 0 .24-.24V25.97zM31.608 20.937c.09 0 .17-.05.213-.128a.241.241 0 0 0-.016-.248.723.723 0 0 0-.086-.103l-1.916-1.916a.959.959 0 0 0-1.355 0l-1.917 1.916a.73.73 0 0 0-.086.103.24.24 0 0 0 .196.376h4.967zM26.25 30.042c0 .529.43.958.958.958h3.834a.96.96 0 0 0 .958-.958v-.72a.24.24 0 0 0-.24-.239h-5.27a.24.24 0 0 0-.24.24v.719zM18.344 29.083a.24.24 0 0 1-.24-.24v-2.872a.24.24 0 0 1 .373-.2l4.885 3.257a.03.03 0 0 1 .013.026.03.03 0 0 1-.03.03h-5.001zm4.655-7.586a.24.24 0 0 1 .376.198v4.591c0 .088-.049.17-.127.212a.242.242 0 0 1-.246-.013l-3.379-2.253a.239.239 0 0 1-.003-.396L23 21.497zm-4.895-3.741a.24.24 0 0 1 .365-.204l3.32 2.043a.241.241 0 0 1 .011.401l-3.32 2.298a.24.24 0 0 1-.376-.197v-4.341zm5.271.135a.24.24 0 0 1-.365.204l-2.836-1.745a.24.24 0 0 1 .126-.444h2.835a.24.24 0 0 1 .24.24v1.745zm-6.626-4.041c-.36.359-.561.846-.561 1.355v14.837c0 .53.429.958.958.958h7.187a.958.958 0 0 0 .959-.958V15.205c0-.51-.203-.996-.562-1.355l-2.892-2.653a.483.483 0 0 1-.14-.34V8.959a.959.959 0 0 0-1.917 0v1.9c0 .127-.05.249-.14.339L16.75 13.85z"/>
    </g>
</svg>
