<svg xmlns="http://www.w3.org/2000/svg" xmlns:xlink="http://www.w3.org/1999/xlink" width="40" height="40" viewBox="0 0 40 40">
    <defs>
        <path id="a" d="M0 .105h11.294V14.5H0z"/>
        <path id="c" d="M.14.105h11.05V14.5H.14z"/>
        <path id="e" d="M.064.122h8.322v4.58H.064z"/>
        <path id="f" d="M.353 0h7.764v6.82H.353z"/>
    </defs>
    <g fill="none" fill-rule="evenodd">
        <g transform="translate(8 16.5)">
            <mask id="b" fill="#fff">
                <use xlink:href="#a"/>
            </mask>
            <path fill="#29ADE4" d="M3.414 14.5c-.594-.407-.835-.966-.737-1.68.024-.167.004-.34.004-.511 0-1.22 0-1.22-1.163-1.395.264-1.855.489-3.716.811-5.561.14-.797.042-1.39-.624-1.906-.479-.37-.884-.84-1.303-1.282C-.108 1.627-.13.936.32.465.795-.03 1.505-.015 2.075.52c.32.3.688.577.92.938.91 1.41 2.273 1.449 3.72 1.337.286-.022.437-.172.606-.34.623-.62 1.237-1.249 1.867-1.86.581-.563 1.25-.595 1.746-.106.504.497.48 1.156-.086 1.748-.49.51-.962 1.047-1.509 1.49-.518.42-.555.89-.462 1.482.299 1.9.562 3.805.839 5.708-1.168.17-1.182.17-1.163 1.465.012.805.068 1.607-.738 2.119h-.88c-.689-.164-.912-.661-.934-1.302-.017-.487.01-.975-.018-1.462-.015-.254-.065-.512-.405-.487-.29.022-.32.264-.332.487-.027.487-.001.975-.018 1.462-.023.641-.245 1.138-.934 1.302h-.88z" mask="url(#b)"/>
        </g>
        <g transform="translate(20.706 16.5)">
            <mask id="d" fill="#fff">
                <use xlink:href="#c"/>
            </mask>
            <path fill="#29ADE4" d="M3.47 14.5c-.578-.406-.74-.962-.729-1.677.037-2.607.007-5.215.023-7.822.002-.395-.1-.68-.384-.952A51.44 51.44 0 0 1 .56 2.192C.029 1.627.005.921.477.442c.472-.48 1.152-.449 1.709.1.497.489 1.017.963 1.454 1.506.484.6 1.059.716 1.788.768 1.12.08 1.967-.23 2.633-1.151.239-.33.564-.593.85-.885.965-.982 1.724-.851 2.28.392v.44c-.126.52-.489.867-.837 1.234-2.023 2.134-1.636 1.151-1.67 4.16-.021 2.017 0 4.035-.006 6.052-.002.684-.171 1.255-.917 1.442h-.858c-.666-.164-.895-.654-.914-1.295-.023-.827.007-1.653-.017-2.479-.008-.275.042-.658-.39-.628-.366.026-.315.375-.322.628-.022.826.007 1.652-.017 2.479-.018.64-.247 1.13-.913 1.295H3.47z" mask="url(#d)"/>
        </g>
        <path fill="#29ADE4" d="M26.497 13.05c1.335.047 2.401 1.16 2.37 2.475-.031 1.309-1.153 2.368-2.496 2.356-1.371-.012-2.475-1.131-2.444-2.48.03-1.34 1.19-2.401 2.57-2.352zM13.651 13.05c1.335.047 2.401 1.16 2.37 2.475-.031 1.309-1.153 2.368-2.496 2.356-1.371-.012-2.475-1.131-2.444-2.48.03-1.34 1.19-2.401 2.57-2.352zM20.144 7.69a.18.18 0 0 1-.287 0c-.52-.706-1.266-.915-1.871-.844-.928.109-1.869.906-1.869 2.219 0 1.675 2.417 3.667 3.456 4.446a.709.709 0 0 0 .853 0c1.04-.779 3.456-2.77 3.456-4.446 0-1.313-.94-2.11-1.868-2.219-.604-.07-1.352.138-1.87.843z"/>
    </g>
</svg>
