<svg xmlns="http://www.w3.org/2000/svg" width="40" height="40" viewBox="0 0 40 40">
    <defs>
        <path id="a" d="M.026.028h25.472V17.24H.026z"/>
        <path id="b" d="M0 0h22v28H0z"/>
    </defs>
    <g fill="none" fill-rule="evenodd">
        <path fill="#29ADE4" d="M32.97 15.174c-.55-1.402-2.06-2.094-3.438-1.587L24.417 15.5a.745.745 0 0 1-.688-.088l-4.573-3.205a1.491 1.491 0 0 0-1.511-.12l-1.6.787a1.597 1.597 0 0 0-.872 1.296 1.61 1.61 0 0 0 .632 1.432l2.198 1.635a.408.408 0 0 1 .155.378.394.394 0 0 1-.25.319l-3.334 1.248a.73.73 0 0 1-.597-.034l-3.065-1.554c-.44-.224-.959-.21-1.39.025l-1.676.922c-.469.26-.78.762-.813 1.311a1.62 1.62 0 0 0 .652 1.399l5.465 3.946c.405.292.925.361 1.383.19l4.215-1.555a.371.371 0 0 1 .407.103.405.405 0 0 1 .073.426l-1.401 3.409c-.25.603-.11 1.314.347 1.77a1.5 1.5 0 0 0 1.718.285l1.501-.744a1.56 1.56 0 0 0 .666-.626l4.132-7.221a.794.794 0 0 1 .375-.334l4.89-2.032c1.419-.591 2.08-2.259 1.515-3.694"/>
    </g>
</svg>
